<svg xmlns="http://www.w3.org/2000/svg" width="130.465" height="39.619" viewBox="0 0 130.465 39.619">
  <g id="OLC0QX.tif" transform="translate(-387.968 -1022.366)">
    <g id="Grupo_1954" data-name="Grupo 1954">
      <path id="Caminho_126" data-name="Caminho 126" d="M404.618,1042.829c2.273-2.43,4.065-4.369,5.885-6.28.836-.878,1.833-1.7,3.042-.819,1.24.908,1.861.435,2.468-.67a3.942,3.942,0,0,1,4.866-2.049,6.909,6.909,0,0,0,4.378-.248c1.856-.67,3.588-.776,4.833,1.191.659,1.043,1.317.761,1.912-.121a8.674,8.674,0,0,1,.777-.975c2.111-2.322,4.409-1.938,5.051,1.1.559,2.646,1.458,2.155,3.081,1.01,2.811-1.983,4.6-2.046,6.6-.481a6.339,6.339,0,0,1,2.219,7.72c-.548,1.272-.469,2.282.579,3.109,1.237.976,2.007-.161,2.758-.833a84.6,84.6,0,0,1,11.067-8.522,12.557,12.557,0,0,1,4.366-1.777c3.557-.692,5.886.574,6.832,4.05.5,1.842,1.189,2.11,2.748,1.13a10.069,10.069,0,0,0,4.819-6.1,10.338,10.338,0,0,1,3.084-5.6,2.006,2.006,0,0,1,2.5-.452c.884.518.833,1.33.724,2.2a9.9,9.9,0,0,1-2.212,4.952,5.217,5.217,0,0,0-1.375,3.131c-.052,1.643,0,3.315,1.679,4.116,1.593.76,2.64-.527,3.654-1.487a11.046,11.046,0,0,0,2.693-3.521,4.8,4.8,0,0,1,7.521-1.835c2.413,1.877,5.079,1.878,7.841,1.368,2.044-.378,4.061-.9,6.089-1.363a3.427,3.427,0,0,1,2.2.066c.53.232,1.183.431,1.121,1.144-.054.618-.7.612-1.162.74a73.923,73.923,0,0,1-11.051,1.928c-1.306.154-2.3.419-2.806,1.941-1.146,3.489-3.152,4.345-6.2,2.286-2.106-1.424-3.583-1.5-5.734-.146-3.166,1.994-5,1.574-7.352-1.409-1.18-1.5-2.114-1.48-3.487-.479-2.143,1.56-4.43,1.879-6.748.379-.783-.507-1.355-.209-2.065.125-4.058,1.908-5.014,1.776-8.119-1.246a1.133,1.133,0,0,0-1.712-.176,45.615,45.615,0,0,0-8.457,8.088c-.839,1.008-.332,2.4-.2,3.64a9.194,9.194,0,0,1-7.485,10.2c-1.2.21-2.43.28-3.264-.665-.846-.961-.2-2.076.238-3.04a33.25,33.25,0,0,1,4.631-7.662c2.264-2.692,1.789-3.966-1.559-4.831-.74-.191-1.54-.235-1.714-1.162-.187-.994.719-1.187,1.29-1.612.736-.547,1.633-1.048,1.774-2.007.251-1.717.7-3.7-.953-4.871s-2.911.375-4.161,1.281a9.34,9.34,0,0,0-.733.678c-3.481,3.146-4.116,2.987-5.573-1.386-.177-.53-.178-1.3-.86-1.371-.632-.071-.928.626-1.292,1.054a9.6,9.6,0,0,0-1.554,3.381c-.248.752-.587,1.415-1.506,1.418a1.69,1.69,0,0,1-1.7-1.525c-.249-1.051-.4-2.127-.67-3.172-.475-1.825-1.62-2.184-3.11-.976-1.214.984-1.62,2.495-2.337,3.8-2.433,4.419-5.659,5.133-9.563,1.911-1.281-1.057-2.1-.961-3.13.177a53.053,53.053,0,0,0-8.094,11.036,51.578,51.578,0,0,1-4.4,7.248c-.612.817-1.25,1.729-2.434,1.016-1.1-.658-.883-1.7-.465-2.659a12.177,12.177,0,0,1,1.558-3.117c3.98-4.656,5.188-10.318,6.033-16.118.22-1.513,1.449-3.586.153-4.415-1.1-.7-2.3,1.442-3.462,2.292a13.593,13.593,0,0,1-4.729,2.68,5,5,0,0,1-5.285-1.978,3.975,3.975,0,0,1-.183-5.086,23.505,23.505,0,0,1,11.9-9.472c3.761-1.393,7.12,1.789,6.384,5.736A143.932,143.932,0,0,0,404.618,1042.829Zm-13.457-6.9c.021,1.357,1.146,2.049,2.879.876a28.913,28.913,0,0,0,9.444-10.465c.312-.586.656-1.252.057-1.837-.527-.515-1.1-.109-1.616.12a22.443,22.443,0,0,0-7.621,5.126C392.885,1031.294,391.055,1032.733,391.161,1035.929Z"/>
      <path id="Caminho_127" data-name="Caminho 127" d="M429.523,1051.9c1.831,0,3.662-.036,5.491.015.913.026,2.05.117,1.91,1.4-.154,1.405-1.27,1.011-2.138.766-4.146-1.17-8.27.43-12.4.065-1.332-.118-3.572.617-3.649-1.008-.072-1.515,2.156-.573,3.333-.85A32.515,32.515,0,0,1,429.523,1051.9Z"/>
    </g>
  </g>
</svg>
