<svg xmlns="http://www.w3.org/2000/svg" width="125.187" height="38.735" viewBox="0 0 125.187 38.735">
  <g id="_1IsjUA.tif" data-name="1IsjUA.tif" transform="translate(-522.097 -920.814)">
    <g id="Grupo_1955" data-name="Grupo 1955">
      <path id="Caminho_128" data-name="Caminho 128" d="M560.828,943.412a19.612,19.612,0,0,1,2.474-6.855c.4-.726.922-1.165,1.82-.756a1.383,1.383,0,0,1,.742,1.879c-.554,1.743-1.257,3.44-1.761,5.2-.252.876-1.042,2,.161,2.7,1.061.615,1.822-.365,2.624-.918a17.536,17.536,0,0,0,5.714-6.791c.952-1.9,2.382-3.014,4.636-2.263.838.279,1.485.816,1.321,1.842-.15.937-.863.794-1.544.784-1.677-.025-2.184,1.2-2.639,2.517a3.581,3.581,0,0,0,.686,3.939c.792.84,1.637.584,2.5.143,3.479-1.78,6.872-3.643,9.642-6.53,3.987-4.157,5.958-4.383,10.949-1.668,1.863,1.013,3.581.362,4.486-1.868.749-1.846,1.306-3.771,1.949-5.661.271-.795.5-1.718,1.61-1.528a2.031,2.031,0,0,1,1.719,2.129,8.479,8.479,0,0,1-1.171,4.543c-1,1.886-.9,3.867-.818,5.854.072,1.8,1.163,2.176,2.531,1.314a35.858,35.858,0,0,0,3.7-2.933c.764-.636,1.43-1.4,2.23-1.98,3.6-2.623,6.551-2.182,8.691,1.74,3.319,6.083,3.923,4.481,6.868.186.987-1.44,1.973-2.886,3.057-4.252,1.889-2.382,4.272-2.185,5.8.433a6.579,6.579,0,0,1,.843,1.8c.434,1.97,1.579,2.017,3.152,1.4,1.059-.419,2.147-1.016,3.345-.483a1.639,1.639,0,0,1,1.138,1.225c.085.812-.655.927-1.181.99-3.619.436-5.628,2.194-5.966,6.078-.192,2.2-2.078,3.341-4.306,3.408a3.6,3.6,0,0,1-3.252-1.984c-.729-1.249.031-2.241.818-3.122.884-.989,1.859-1.9,2.766-2.866.448-.48,1.06-.964,1.2-1.545.363-1.487.454-3.278-1.018-4.041-1.432-.743-1.788,1.09-2.405,1.927-1.375,1.869-2.586,3.859-3.876,5.793-1.321,1.981-3.024,2.4-4.8.767-1.888-1.737-3.416-1.933-5.52-.164-1.6,1.344-3.544.585-4.9-.887-1.154-1.249-2.1-1.116-3.439-.273-4.168,2.619-5.9,2.171-8.379-2.1-.638-1.1-1.207-1.175-2.138-.487-1.869,1.381-3.762,2.729-5.64,4.1a7.011,7.011,0,0,1-8.379.405,3.23,3.23,0,0,0-4.086.031c-.934.681-2.026,1.138-3.009,1.757-2.437,1.535-4.766,1.9-6.956-.444-1.005-1.075-2.03-.816-3.095-.021a9.942,9.942,0,0,1-3.982,1.981C562.882,948.42,560.775,946.7,560.828,943.412Zm29.84-1.109a15.509,15.509,0,0,0,4.323-1.732,1.888,1.888,0,0,0,.979-2.7c-.579-1.107-1.62-1.252-2.783-.778a10.789,10.789,0,0,0-3.949,2.932c-.393.439-.8.909-.54,1.545C589.007,942.32,589.7,942.331,590.668,942.3Z"/>
      <path id="Caminho_129" data-name="Caminho 129" d="M530.538,930.892a6.538,6.538,0,0,1,4.034,2.51c2.978,3.794,6.009,7.545,8.966,11.355,1.18,1.521,1.766,1.36,2.685-.341a168.972,168.972,0,0,0,10.2-21.922c.346-.944.7-2.039,2.061-1.566,1.451.5,1.2,1.638.742,2.684q-5.107,11.8-11.033,23.206c-.9,1.726-2.2,2.038-3.952,1.21-2.318-1.1-3.492-3.275-5-5.121-1.945-2.381-3.682-4.933-5.629-7.312-.8-.973-1.49-2.576-3.018-2.227-1.3.3-1.525,1.852-1.926,3.01-1.116,3.223-2.161,6.471-3.276,9.694-.362,1.044-.523,2.589-2.21,1.974-1.419-.516-1.132-1.76-.867-2.975a44.444,44.444,0,0,1,4.4-11.631A4.313,4.313,0,0,1,530.538,930.892Z"/>
      <path id="Caminho_130" data-name="Caminho 130" d="M590.1,958.577c-7.764-.232-15.527-.43-23.232.895-1.017.175-2.2.156-2.3-1.186-.09-1.216,1.061-1.3,1.969-1.373a287.76,287.76,0,0,1,28.994-1,4.445,4.445,0,0,1,1.463.208,1.406,1.406,0,0,1,1.025,1.523c-.1.9-.758.939-1.465.935C594.4,958.569,592.247,958.578,590.1,958.577Z"/>
    </g>
  </g>
</svg>
